Das Mädchen Johanna (1935)

87 min  -  Biography | Drama | History

Director: Gustav Ucicky

Country: Germany | Language: German

Subtitles: Portuguese BR [by Sieg - FilmesEpicos dot com]

Color: Black and White 


=========================================


General
Complete name                  : Das.Madchen.Johanna.1935.[FilmesEpicos.com].avi
Format                         : AVI
Format/Info                    : Audio Video Interleave
File size                      : 906 MiB
Duration                       : 1h 17mn
Overall bit rate               : 1 639 Kbps
Writing application            : Lavf52.57.1

Video
ID                             : 0
Format                         : xvid
Codec ID                       : xvid
Duration                       : 1h 17mn
Bit rate                       : 1 499 Kbps
Width                          : 480 pixels
Height                         : 360 pixels
Display aspect ratio           : 4:3
Frame rate                     : 25.000 fps
Bits/(Pixel*Frame)             : 0.347
Stream size                    : 829 MiB (91%)

Audio
ID                             : 1
Format                         : MPEG Audio
Format version                 : Version 1
Format profile                 : Layer 3
Mode                           : Joint stereo
Mode extension                 : MS Stereo
Codec ID                       : 55
Codec ID/Hint                  : MP3
Duration                       : 1h 17mn
Bit rate mode                  : Constant
Bit rate                       : 128 Kbps
Channel(s)                     : 2 channels
Sampling rate                  : 44.1 KHz
Compression mode               : Lossy
Stream size                    : 70.7 MiB (8%)
Alignment                      : Aligned on interleaves
Interleave, duration           : 26 ms (0.65 video frame)
Writing library                : LAME3.98.2



